<?xml version="1.0" encoding="utf-8"?>
<!-- Generator: Adobe Illustrator 28.2.0, SVG Export Plug-In . SVG Version: 6.00 Build 0)  -->
<svg version="1.1" id="レイヤー_1" xmlns="http://www.w3.org/2000/svg" xmlns:xlink="http://www.w3.org/1999/xlink" x="0px"
	 y="0px" width="1231px" height="1370px" viewBox="0 0 1231 1370" enable-background="new 0 0 1231 1370" xml:space="preserve">
<g>
	<g>
		<path fill="#FFFFFF" d="M1231,1370c-410.3,0-820.7,0-1231,0C0,913.3,0,456.7,0,0c410.3,0,820.7,0,1231,0
			C1231,456.7,1231,913.3,1231,1370z M1163.9,122.4C1163.9,122.4,1163.9,122.4,1163.9,122.4c0.8-21.6,1.5-43.3,2.4-64.9
			c0.5-11.2-3-20.7-12.4-26.7c-11-7-23.2-7.4-34.7-1.1c-10.7,5.8-15.4,15.8-16.1,27.6c-0.5,8.6-0.6,17.3-1,25.9
			c-0.9,18.6-1.9,37.3-2.7,55.9c-1.1,26.8-1.9,53.6-3,80.3c-0.8,18.6-2.1,37.2-2.8,55.8c-0.9,20.5-1.3,41-2.2,61.4
			c-0.1,2.5-2.1,5.8-4.2,7.1c-17.5,10.7-35.2,21-52.8,31.4c-19.2,11.4-38.4,22.8-57.6,34.1c-21.2,12.5-42.6,24.9-63.8,37.5
			c-21.5,12.7-42.8,25.6-64.3,38.3c-26,15.3-52,30.4-78,45.6c-22.4,13.1-44.8,26.2-67.2,39.3c-11.5,6.7-23,13.4-34.5,20.1
			c-11.5,6.7-23,13.3-34.6,19.9c-2.6,1.5-4.7,1.8-4.6-2.5c0.5-20.5,0.8-40.9,1.2-61.4c0.6-30.8,1.4-61.6,2-92.4c0.4-19,0.6-38,1-57
			c0.1-3.6-0.4-5.3-4.8-5.1c-23.1,1-46.2,1.8-69.4,2.4c-13.1,0.4-26.2,0.3-39.4,0.7c-19.6,0.6-39.2,1.5-58.9,2.1
			c-18.1,0.6-36.2,0.9-54.4,1.4c-12.8,0.4-25.6,1.1-38.4,1.4c-24,0.6-47.9,0.9-71.9,1.5c-35,0.9-69.9,2.2-104.9,3.1
			c-24.5,0.7-49,1-73.4,1.5c-5.7,0.1-6.2-0.3-6.1-6.1c0-25.5,0.1-50.9,0-76.4c-0.3-54.5-0.7-108.9-1.1-163.4
			c-0.1-9.1,0.6-9.7,9.8-9.9c0.8,0,1.7,0,2.5,0c9.6-0.3,19.3-0.5,28.9-1c16.6-0.7,33.2-1.6,49.8-2.4c16.8-0.7,33.6-1.2,50.4-2
			c21.8-1,43.5-2.3,65.3-3.3c23.8-1.1,47.6-1.8,71.4-3c25.6-1.2,51.2-2.8,76.8-4c15.8-0.8,31.6-1.1,47.4-1.8
			c14.1-0.6,28.2-1.5,42.4-2.3c19.1-1.1,38.2-2.1,57.3-3.5c7.2-0.5,13.6-3.5,18.4-9c9.5-10.8,10.3-23.3,5.5-36
			C632.3,68.7,621.4,63,608,63.4c-21.8,0.6-43.5,2-65.2,3.3c-19.9,1.2-39.8,2.9-59.7,4c-19.9,1-39.9,1.5-59.8,2.2
			c-23.5,0.9-46.9,1.7-70.3,2.7c-22.8,1-45.5,2.4-68.3,3.5c-28.4,1.3-56.9,2.4-85.3,3.6c-23.8,1-47.5,2.3-71.3,3.3
			c-25,1.1-49.9,2.1-74.9,3.1c-3.7,0.1-5.2,1.5-5.1,5.5c0.5,21.5,0.9,42.9,1.1,64.4c0.4,45.9,0.5,91.9,0.8,137.8
			c0.2,26.6,0.6,53.2,0.8,79.9c0.2,24.7,0.2,49.3,0.3,74c0.1,34.5,0.2,69,0.3,103.4c0.1,30.1,0.4,60.3,0.6,90.4
			c0,1.6,0.1,3.4,0.7,4.9c8.1,19.5,15.5,39.3,24.7,58.4c13.2,27.5,28.2,54,45.7,79c14,20,27.9,40.3,43.6,59
			c17.2,20.5,36,39.6,54.9,58.5c11.4,11.3,23.9,21.7,36.9,31.3c19,14,38.6,27.3,58.6,39.9c28.4,17.9,58.7,32.2,90.2,43.7
			c31,11.3,62.7,20.3,95.1,26.1c27.5,5,55.3,8.1,83.3,9c12.6,0.4,25.3-0.1,37.9-0.6c29-1.2,57.7-5.6,86.1-11.1
			c19.2-3.7,38.1-9.5,57-14.5c30-8,58.6-20.2,86.7-33c25.7-11.7,50.1-26.2,73.4-42.4c20.2-14,40-28.5,57.9-45.4
			c13.7-13,27.2-26.4,40.1-40.2c15.9-17,30.6-35.1,43.3-54.5c12.8-19.5,25.1-39.3,36-59.8c10.8-20.2,19.7-41.5,29.2-62.4
			c2.6-5.7,5.5-11.8,5.9-17.8c1.6-20.7,2.2-41.5,3.1-62.3c0.6-14.1,1-28.3,1.7-42.4c1.5-31.1,3.3-62.1,4.7-93.2
			c1.1-24.4,1.5-48.9,2.6-73.4c1.3-28.4,3.1-56.8,4.4-85.3c2.1-43.2,4-86.5,5.9-129.7C1162.6,165,1163.2,143.7,1163.9,122.4z
			 M935.9,1252.2c3.4-0.7,5.3-1,7.2-1.5c8.6-2.3,16.9-5.6,23-12.3c5.8-6.5,9.7-14.3,10.8-23.2c3.5-28.4-9.5-49.6-37.8-53.4
			c-18.6-2.5-37.5-2.3-56.3-3.2c-6.5-0.3-6.5,0-6.6,6.6c-0.4,25.8-0.9,51.6-1.4,77.4c-0.5,24.6-1,49.3-1.6,73.9
			c-0.1,3.3,1.1,5,4.5,5.1c5,0.2,10,0.5,15,0.8c3.8,0.3,5.3-1.2,5.4-5.1c0.1-19.5,0.4-39,0.8-58.5c0-2.1,0.9-6,1.5-6
			c3.3-0.1,6.8,0.4,10,1.4c1.4,0.5,2.4,2.7,3.4,4.2c13.5,20.4,26.9,40.9,40.4,61.3c1.1,1.7,2.9,4.1,4.6,4.2
			c9.4,0.7,18.8,0.8,28.3,1.1c0.1,0,0.3-0.5,0.3-0.6C970.2,1300.5,953.3,1276.7,935.9,1252.2z M997.8,1325.4
			c9.5,0.5,17.7,1.1,26,1.3c1.2,0,3-1.9,3.5-3.3c4.5-11.3,9.1-22.5,13.2-34c1.7-4.7,4-6.5,9-6.3c20,0.8,39.9,1.4,59.9,1.9
			c3.2,0.1,4.7,1.7,5.6,4.5c3.9,11.9,7.8,23.7,12,35.5c0.7,2,2.9,4.8,4.6,5c8.2,0.9,16.5,1.1,25.4,1.5c-0.6-2-0.9-3.4-1.4-4.8
			c-4.5-12.2-9-24.3-13.4-36.6c-14.2-39.8-28.4-79.6-42.5-119.5c-1.4-4-4-5.8-8.3-5.6c-4.3,0.2-8.6-0.1-13-0.2
			c-16.9-0.3-14.4-2.3-19.5,11.8c-0.1,0.2-0.1,0.3-0.2,0.5c-7.4,17.8-14.8,35.6-22.1,53.5c-11.1,27.3-22,54.7-33.1,82
			C1001.9,1316.6,1000.1,1320.5,997.8,1325.4z M834.9,1211.9c0.3,0,0.6,0,0.9,0c0-16.3-0.1-32.6,0.1-49c0-4.3-1.1-6.5-5.9-6.1
			c-4.3,0.4-8.7,0.2-13-0.2c-4.4-0.4-5.9,1.4-5.9,5.7c-0.3,23-0.4,46-1.2,69c-0.5,13.7-1.1,27.6-3.5,41.1
			c-2.1,11.8-10,20.1-21.8,23.9c-10.9,3.6-22.1,3.4-33.1,1.4c-19.1-3.4-31.3-16.1-32.1-35.3c-0.6-15.8-0.3-31.6,0-47.4
			c0.3-18.6,0.8-37.3,1.4-55.9c0.1-3.8-1.2-5.5-5.2-5.3c-4.6,0.2-9.3-0.1-14-0.3c-4.6-0.3-6,1.7-6,6.3c-0.1,20.5-0.7,41-0.7,61.4
			c0,16-0.5,32,1,47.9c2.1,22,14.1,37.8,35,45.8c20.9,8,42.4,8.4,63.8,2.7c8.6-2.3,16.6-6.6,22.9-13.5c9.7-10.7,14.4-23.8,15.5-37.7
			C834.3,1248.2,834.2,1230,834.9,1211.9z M516.2,1204.9c-0.4,0-0.7,0-1.1,0c0,4.5-0.1,9,0,13.5c0.4,16.3-0.6,32.8,1.6,48.8
			c3.1,22.7,16.8,37.7,39.2,44.3c16,4.7,32.3,5.5,48.4,2.7c13-2.2,25.2-7.1,34-18.1c11.5-14.3,14.5-31.1,15-48.7
			c0.5-16.8,0.7-33.6,1-50.4c0.2-13.2,0.4-26.3,0.7-39.5c0.1-4.2-1.5-5.6-5.6-5.5c-4.5,0.1-9-0.1-13.5-0.4c-4-0.3-5.6,1.3-5.7,5.4
			c-0.3,26.8-0.7,53.6-1.2,80.4c-0.2,8.3-0.4,16.7-1.9,24.8c-1.9,10.8-7.1,19.9-17.2,25.6c-9.1,5.1-19.1,6-29.1,5.4
			c-11.9-0.7-23.5-2.8-32.1-12.6c-7.8-8.8-10.3-19.3-10.1-30.5c0.4-32.1,1.1-64.3,1.8-96.4c0.1-3.5-0.7-4.7-4.4-4.5
			c-5,0.3-10,0.2-15-0.4c-4.4-0.5-5.1,1.3-5.1,5C516.2,1171,516.2,1187.9,516.2,1204.9z M185.4,1196.5c-0.2,0-0.5,0-0.7,0
			c0,4.8-0.1,9.7,0,14.5c0.4,18.1-2.2,36.2,2.7,54.2c4.8,18,15.4,31,32.7,36.8c20.3,6.8,41.5,8.5,62.5,2.4
			c10.6-3.1,20.2-8.2,27.2-17.5c10-13.3,13.1-28.6,13.7-44.5c0.8-22.6,1-45.3,1.4-67.9c0.1-8,0.2-16,0.2-24c0-2.8-0.4-5.5-4.1-5.6
			c-5.3-0.1-10.7-0.3-16-0.4c-3.4,0-4.6,2-4.6,5.2c-0.1,11.6-0.1,23.3-0.4,34.9c-0.5,22.3-0.8,44.6-2,66.9
			c-0.8,15.2-9.4,25.7-23.5,31.2c-11.9,4.7-24.1,3.9-36.4,1.2c-16.5-3.6-27.3-14.9-28.2-31.7c-0.9-15.3-0.7-30.6-0.6-45.9
			c0.1-19.1,0.6-38.3,1-57.4c0.1-4.4-1.7-6.5-6.2-6.3c-4,0.1-8-0.2-12-0.2c-5.7,0-6.7,1-6.7,6.7
			C185.4,1164.8,185.4,1180.7,185.4,1196.5z M389.4,1225.7c3.2,3.6,5.5,6,7.5,8.6c18.9,24,37.7,48.1,56.6,72.2c0.8,1,1.9,2.3,3,2.4
			c10,0.8,20.1,1.4,31.3,2.1c-1.4-2.4-1.8-3.6-2.6-4.5c-4.3-5.1-8.7-10.1-13-15.2c-16.9-20.5-33.6-41.3-50.8-61.6
			c-6-7-8.3-8.6,1.4-17.9c4.1-3.9,8.1-7.9,12-11.9c14.1-14.4,28.1-28.8,42.2-43.2c2.4-2.5,4.6-5.2,6.9-7.8
			c-9.7-1.2-18.7-1.3-27.6-1.1c-1.4,0-3.1,1.1-4.2,2.2c-6.9,6.9-13.8,13.9-20.5,21c-12.6,13.3-25,26.7-37.6,40
			c-1,1.1-2.4,1.8-4.9,3.6c0-4.6-0.1-7.7,0-10.7c0.4-17.3,0.7-34.6,1.2-51.9c0.1-4.1-1.4-5.8-5.4-5.7c-4.5,0.1-9-0.1-13.5-0.2
			c-3.7-0.1-5.5,1.5-5.5,5.3c-0.2,16.1-0.4,32.3-0.7,48.4c-0.2,16.6-0.3,33.3-0.7,49.9c-0.4,17.8-0.9,35.6-1.5,53.4
			c-0.1,3.1,1.2,4.3,4,4.4c5.3,0.2,10.6,0.4,16,0.6c3.5,0.1,5-1.4,5.1-5.1c0.1-23.8,0.3-47.6,0.6-71.4
			C388.7,1230.1,389,1228.7,389.4,1225.7z M47.5,1220.5c-0.7,0-1.3,0-2,0c0,25.3,0,50.6-0.1,75.9c0,2.7,0.7,4.1,3.5,4.2
			c4.8,0.1,9.6,0.4,14.5,0.5c6.5,0.1,6.6-0.2,6.7-6.8c0.1-17,0-34,0.5-50.9c0.5-15.3-1.8-12.4,13-12.5c17.5-0.1,35,0.5,52.4,1
			c4,0.1,5.9-1.1,5.7-5.4c-0.2-4,0-8,0.1-12c0-3.1-1.1-5-4.7-4.9c-3.5,0.1-7-0.3-10.5-0.3c-16.8-0.3-33.6-0.6-50.5-0.7
			c-3.8,0-5.3-1.3-5.2-5.3c0.3-11.5,0.3-23,0.4-34.5c0.1-6.4,0.7-7.1,7.2-7c0.8,0,1.7,0.1,2.5,0.1c21,0.4,41.9,0.8,62.9,1.4
			c3.6,0.1,5.2-1.4,5.3-4.9c0.1-4,0.2-8,0.4-12c0.2-3.8-1.3-5.6-5.2-5.5c-4.2,0.1-8.3,0.2-12.5,0.1c-26.1-0.5-52.3-0.9-78.4-1.5
			c-4.3-0.1-6.3,1.2-6.3,5.9C47.6,1170.5,47.5,1195.5,47.5,1220.5z"/>
		<path d="M1163.9,122.4c-0.8,21.3-1.4,42.6-2.3,63.9c-1.9,43.3-3.8,86.5-5.9,129.7c-1.4,28.4-3.1,56.8-4.4,85.3
			c-1.1,24.4-1.5,48.9-2.6,73.4c-1.4,31.1-3.2,62.1-4.7,93.2c-0.7,14.1-1.1,28.3-1.7,42.4c-0.9,20.8-1.5,41.6-3.1,62.3
			c-0.5,6.1-3.4,12.1-5.9,17.8c-9.5,20.9-18.4,42.1-29.2,62.4c-10.9,20.5-23.3,40.4-36,59.8c-12.8,19.4-27.4,37.6-43.3,54.5
			c-12.9,13.8-26.4,27.2-40.1,40.2c-17.9,16.9-37.7,31.4-57.9,45.4c-23.3,16.2-47.7,30.7-73.4,42.4c-28.1,12.8-56.7,25-86.7,33
			c-19,5-37.8,10.7-57,14.5c-28.4,5.5-57.1,9.9-86.1,11.1c-12.6,0.5-25.3,1-37.9,0.6c-28-0.9-55.8-4.1-83.3-9
			c-32.5-5.9-64.2-14.8-95.1-26.1c-31.5-11.5-61.8-25.8-90.2-43.7c-20-12.6-39.5-25.9-58.6-39.9c-13-9.5-25.5-19.9-36.9-31.3
			c-19-18.9-37.7-38.1-54.9-58.5c-15.7-18.7-29.6-39-43.6-59c-17.5-25-32.5-51.6-45.7-79c-9.1-19-16.6-38.8-24.7-58.4
			c-0.6-1.5-0.7-3.3-0.7-4.9c-0.2-30.1-0.4-60.3-0.6-90.4c-0.2-34.5-0.2-69-0.3-103.4c-0.1-24.7-0.1-49.3-0.3-74
			c-0.2-26.6-0.6-53.2-0.8-79.9c-0.3-45.9-0.5-91.9-0.8-137.8c-0.2-21.5-0.6-42.9-1.1-64.4c-0.1-4,1.3-5.3,5.1-5.5
			c25-1,49.9-2,74.9-3.1c23.8-1.1,47.5-2.3,71.3-3.3c28.4-1.3,56.9-2.3,85.3-3.6c22.8-1,45.5-2.4,68.3-3.5c23.4-1,46.9-1.8,70.3-2.7
			c19.9-0.7,39.9-1.2,59.8-2.2c19.9-1,39.8-2.8,59.7-4c21.7-1.3,43.5-2.7,65.2-3.3c13.4-0.3,24.3,5.4,29.2,18.5
			c4.8,12.7,4,25.3-5.5,36c-4.8,5.5-11.2,8.5-18.4,9c-19.1,1.3-38.2,2.4-57.3,3.5c-14.1,0.8-28.2,1.6-42.4,2.3
			c-15.8,0.7-31.6,1-47.4,1.8c-25.6,1.2-51.2,2.8-76.8,4c-23.8,1.1-47.6,1.9-71.4,3c-21.8,1-43.5,2.3-65.3,3.3
			c-16.8,0.8-33.6,1.3-50.4,2c-16.6,0.7-33.2,1.6-49.8,2.4c-9.6,0.4-19.3,0.7-28.9,1c-0.8,0-1.7,0-2.5,0c-9.2,0.2-9.9,0.8-9.8,9.9
			c0.4,54.5,0.8,108.9,1.1,163.4c0.1,25.5,0,50.9,0,76.4c0,5.8,0.5,6.3,6.1,6.1c24.5-0.5,49-0.9,73.4-1.5c35-0.9,69.9-2.2,104.9-3.1
			c24-0.6,47.9-0.9,71.9-1.5c12.8-0.3,25.6-1,38.4-1.4c18.1-0.5,36.2-0.9,54.4-1.4c19.6-0.6,39.2-1.5,58.9-2.1
			c13.1-0.4,26.2-0.3,39.4-0.7c23.1-0.7,46.3-1.4,69.4-2.4c4.5-0.2,4.9,1.5,4.8,5.1c-0.4,19-0.6,38-1,57c-0.6,30.8-1.4,61.6-2,92.4
			c-0.4,20.5-0.7,40.9-1.2,61.4c-0.1,4.4,1.9,4,4.6,2.5c11.6-6.6,23.1-13.3,34.6-19.9c11.5-6.7,23-13.4,34.5-20.1
			c22.4-13.1,44.8-26.2,67.2-39.3c26-15.2,52.1-30.4,78-45.6c21.5-12.7,42.9-25.6,64.3-38.3c21.2-12.5,42.5-24.9,63.8-37.5
			c19.2-11.3,38.4-22.7,57.6-34.1c17.6-10.4,35.3-20.7,52.8-31.4c2.1-1.3,4.1-4.6,4.2-7.1c1-20.5,1.4-40.9,2.2-61.4
			c0.8-18.6,2.1-37.2,2.8-55.8c1.1-26.8,1.9-53.6,3-80.3c0.8-18.6,1.8-37.3,2.7-55.9c0.4-8.6,0.5-17.3,1-25.9
			c0.6-11.9,5.3-21.9,16.1-27.6c11.5-6.2,23.7-5.9,34.7,1.1c9.4,6,12.9,15.5,12.4,26.7C1165.4,79.1,1164.7,100.7,1163.9,122.4
			C1163.9,122.4,1163.9,122.4,1163.9,122.4z M121.9,548.8c0.4,0.2,0.7,0.5,1.1,0.7c-0.8,1.5-1.6,3-2.6,4.4c-3.7,5.1-7.3,10-7.2,16.9
			c0.2,20.3,0,40.6,0,61c0,1.6-0.1,3.5,0.6,4.9c9.4,21.1,18.4,42.4,28.5,63.2c6,12.4,13,24.4,20.7,35.9c14.1,21,28.7,41.6,43.7,61.9
			c21.3,28.9,46.5,54.3,73.7,77.7c18.7,16.1,38.2,31.2,59.5,43.7c15.1,8.8,30,18,45.6,25.7c24.5,12.1,49.8,22.4,76.4,29.2
			c17.9,4.6,35.8,8.9,54,12.5c13.4,2.6,27.1,3.6,40.5,5.9c4.5,0.8,5.6-0.4,5.7-4.5c0.4-17.8,1-35.6,1.3-53.4
			c0.6-34,1-67.9,1.5-101.9c0.5-29.8,1.2-59.6,1.7-89.4c0.4-21.6,0.6-43.2,0.9-64.9c0.3-18.8,0.6-37.6,0.9-56.4
			c0.3-26.1,0.5-52.3,0.9-78.4c0.4-27.1,1-54.3,1.7-81.4c0.1-4.5-1.3-6.5-6-6.2c-10.8,0.6-21.6,0.9-32.4,1.3
			c-19,0.6-37.9,1.3-56.9,1.8c-15.1,0.4-30.3,0.5-45.4,0.9c-29.6,0.8-59.2,1.7-88.8,2.5c-23.5,0.7-46.9,1.3-70.4,2
			c-17.3,0.5-34.6,1.3-51.9,1.7c-33.6,0.9-67.2,1.6-100.8,2.4c-3.1,0.1-5.3,1.2-5.2,4.7c0.6,13.6,1.4,27.2,1.7,40.9
			c0.2,5.5,4.4,10.1,2.1,16.4c-1.4,3.6,2.5,3,5.3,1.7c-0.3,1.5-1,2.8-1.6,4.1c-0.5,0.9-1.6,2-1.3,2.7c1.3,3.3,0,5.4-2.6,7.2
			c-0.6,0.4-1.1,2.1-0.8,2.4c0.7,0.7,1.9,1.3,2.8,1.3C119.7,549.8,120.8,549.1,121.9,548.8z M663.6,665.1c1.5,0.9,2.4,1.7,3.4,2
			c8.8,3.1,17.6,6,26.4,9.1c17,5.9,33.9,11.9,50.9,17.9c23.7,8.3,47.5,16.5,71.2,24.9c17.1,6.1,34.1,12.5,51.2,18.6
			c19,6.8,38,13.3,57,20c27.1,9.7,54.2,19.5,81.2,29.4c3.6,1.3,6.1,0.4,8.1-2.7c9.3-14.6,19.4-28.8,27.6-44
			c11.1-20.6,20.8-42,30.9-63.2c2.6-5.5,5.2-11.3,6.1-17.3c1.2-7.7,0.9-15.6,1.1-23.4c0.9-26.3,1.6-52.6,2.7-78.9
			c0.9-24,2.2-47.9,3.3-71.8c0.8-17.5,1.6-34.9,2.3-52.4c0.2-5.2,0-10.3,0-16.3C945.2,500,804.8,582.3,663.6,665.1z M625.7,855.4
			c-0.2,0-0.5,0-0.7,0c0,11,0.1,22,0,33c-0.5,32.1-1,64.3-1.7,96.4c-0.2,8.4,0.1,8.8,8.5,8c33.2-3.4,66-8.5,98.3-17.2
			c26.6-7.2,52.7-15.6,77.9-26.6c23.5-10.2,46.3-21.9,68-35.7c24.8-15.7,48.3-33,69.7-53.1c5.5-5.1,11.1-10,16.6-15.1
			c5.1-4.8,4.6-6.8-2.2-9c-2.1-0.7-4.2-1.1-6.2-1.9c-21.1-7.7-42.1-15.7-63.2-23.3c-23.8-8.6-47.7-16.8-71.5-25.4
			c-24.8-8.9-49.4-18-74.2-26.8c-23.6-8.4-47.4-16.6-71.1-25c-13.5-4.8-26.9-9.6-40.4-14.5c-3.9-1.4-5.4-0.7-5.5,3.8
			c-0.1,11.6-0.6,23.3-0.8,34.9C626.7,790.5,626.2,822.9,625.7,855.4z"/>
		<path d="M935.9,1252.2c17.4,24.6,34.3,48.3,51.2,72.2c0,0-0.2,0.6-0.3,0.6c-9.4-0.3-18.9-0.4-28.3-1.1c-1.6-0.1-3.4-2.5-4.6-4.2
			c-13.5-20.4-26.9-40.8-40.4-61.3c-1-1.5-2-3.7-3.4-4.2c-3.2-1.1-6.6-1.5-10-1.4c-0.6,0-1.5,3.9-1.5,6c-0.4,19.5-0.6,39-0.8,58.5
			c0,3.9-1.6,5.4-5.4,5.1c-5-0.4-10-0.6-15-0.8c-3.4-0.1-4.6-1.8-4.5-5.1c0.6-24.6,1.2-49.3,1.6-73.9c0.5-25.8,1-51.6,1.4-77.4
			c0.1-6.6,0.1-6.9,6.6-6.6c18.8,0.9,37.7,0.7,56.3,3.2c28.4,3.8,41.3,25,37.8,53.4c-1.1,8.9-5,16.7-10.8,23.2
			c-6,6.8-14.3,10.1-23,12.3C941.2,1251.1,939.3,1251.4,935.9,1252.2z M900.3,1205.9c-0.4,0-0.7,0-1.1,0c0,6.5,0.1,13,0,19.5
			c-0.1,3.8,1.4,5.7,5.2,5.6c9.3-0.1,18.7,0.4,27.8-0.7c11.5-1.5,20-8.7,20.6-21.7c0.6-13-4.5-21.7-17.5-24.5
			c-10.1-2.2-20.8-2-31.2-2.7c-3.2-0.2-3.8,2.1-3.8,4.7C900.3,1192.6,900.3,1199.2,900.3,1205.9z"/>
		<path d="M997.8,1325.4c2.2-4.9,4.1-8.8,5.7-12.8c11.1-27.3,22-54.7,33.1-82c7.3-17.9,14.7-35.7,22.1-53.5c0.1-0.2,0.1-0.3,0.2-0.5
			c5-14.2,2.5-12.1,19.5-11.8c4.3,0.1,8.7,0.4,13,0.2c4.3-0.2,6.9,1.5,8.3,5.6c14.1,39.8,28.3,79.7,42.5,119.5
			c4.4,12.2,8.9,24.4,13.4,36.6c0.5,1.4,0.8,2.8,1.4,4.8c-8.8-0.5-17.1-0.6-25.4-1.5c-1.7-0.2-3.9-3-4.6-5
			c-4.2-11.7-8.1-23.6-12-35.5c-0.9-2.9-2.4-4.4-5.6-4.5c-20-0.5-39.9-1.1-59.9-1.9c-5-0.2-7.4,1.7-9,6.3
			c-4.1,11.4-8.6,22.7-13.2,34c-0.6,1.4-2.4,3.4-3.5,3.3C1015.6,1326.6,1007.3,1326,997.8,1325.4z M1051.8,1260.8
			c1.1,0.4,1.7,0.8,2.3,0.9c15.9,0.8,31.8,1.6,47.8,2.2c3.9,0.2,3.7-2.3,2.7-5.1c-7.2-20.4-14.3-40.7-21.5-61.1
			c-0.8-2.2-2.2-4.1-3.9-7.4C1069.7,1214.7,1060.9,1237.5,1051.8,1260.8z"/>
		<path d="M834.9,1211.9c-0.6,18.1-0.6,36.3-2,54.4c-1.1,13.9-5.8,27-15.5,37.7c-6.3,6.9-14.3,11.2-22.9,13.5
			c-21.4,5.7-43,5.3-63.8-2.7c-20.9-8-32.9-23.8-35-45.8c-1.5-15.8-1-31.9-1-47.9c0-20.5,0.7-41,0.7-61.4c0-4.5,1.4-6.5,6-6.3
			c4.7,0.3,9.3,0.5,14,0.3c4-0.2,5.3,1.5,5.2,5.3c-0.5,18.6-1.1,37.3-1.4,55.9c-0.2,15.8-0.6,31.6,0,47.4
			c0.8,19.3,13,31.9,32.1,35.3c11,2,22.2,2.2,33.1-1.4c11.8-3.9,19.7-12.1,21.8-23.9c2.4-13.5,3-27.4,3.5-41.1c0.8-23,1-46,1.2-69
			c0-4.3,1.5-6,5.9-5.7c4.3,0.3,8.7,0.5,13,0.2c4.8-0.4,6,1.8,5.9,6.1c-0.1,16.3-0.1,32.6-0.1,49
			C835.5,1211.9,835.2,1211.9,834.9,1211.9z"/>
		<path d="M516.2,1204.9c0-17,0-34,0-51c0-3.7,0.8-5.5,5.1-5c4.9,0.6,10,0.7,15,0.4c3.7-0.2,4.5,1,4.4,4.5
			c-0.7,32.1-1.4,64.3-1.8,96.4c-0.1,11.2,2.4,21.7,10.1,30.5c8.6,9.8,20.2,11.9,32.1,12.6c10,0.5,19.9-0.3,29.1-5.4
			c10.1-5.7,15.3-14.8,17.2-25.6c1.4-8.1,1.7-16.5,1.9-24.8c0.6-26.8,1-53.6,1.2-80.4c0-4.2,1.7-5.7,5.7-5.4c4.5,0.3,9,0.5,13.5,0.4
			c4.1-0.1,5.7,1.3,5.6,5.5c-0.4,13.1-0.5,26.3-0.7,39.5c-0.3,16.8-0.5,33.6-1,50.4c-0.5,17.6-3.5,34.3-15,48.7
			c-8.8,11-21,15.9-34,18.1c-16.2,2.8-32.4,2-48.4-2.7c-22.5-6.6-36.1-21.6-39.2-44.3c-2.2-16-1.2-32.5-1.6-48.8
			c-0.1-4.5,0-9,0-13.5C515.4,1204.9,515.8,1204.9,516.2,1204.9z"/>
		<path d="M185.4,1196.5c0-15.8,0-31.6,0-47.5c0-5.7,1-6.7,6.7-6.7c4,0,8,0.3,12,0.2c4.5-0.1,6.3,2,6.2,6.3
			c-0.4,19.1-0.9,38.3-1,57.4c-0.1,15.3-0.3,30.6,0.6,45.9c1,16.8,11.7,28.1,28.2,31.7c12.2,2.7,24.5,3.4,36.4-1.2
			c14.1-5.5,22.7-16,23.5-31.2c1.2-22.3,1.4-44.6,2-66.9c0.3-11.6,0.3-23.3,0.4-34.9c0-3.2,1.2-5.2,4.6-5.2c5.3,0,10.7,0.2,16,0.4
			c3.8,0.1,4.1,2.8,4.1,5.6c0,8,0,16-0.2,24c-0.4,22.6-0.6,45.3-1.4,67.9c-0.6,15.9-3.7,31.2-13.7,44.5c-7,9.3-16.6,14.4-27.2,17.5
			c-21,6.2-42.2,4.4-62.5-2.4c-17.3-5.8-27.9-18.8-32.7-36.8c-4.8-18-2.3-36.1-2.7-54.2c-0.1-4.8,0-9.7,0-14.5
			C184.9,1196.5,185.2,1196.5,185.4,1196.5z"/>
		<path d="M389.4,1225.7c-0.4,3-0.7,4.4-0.7,5.9c-0.2,23.8-0.5,47.6-0.6,71.4c0,3.6-1.5,5.2-5.1,5.1c-5.3-0.2-10.6-0.4-16-0.6
			c-2.8-0.1-4.1-1.4-4-4.4c0.6-17.8,1.2-35.6,1.5-53.4c0.4-16.6,0.5-33.3,0.7-49.9c0.2-16.1,0.5-32.3,0.7-48.4
			c0-3.8,1.8-5.5,5.5-5.3c4.5,0.1,9,0.3,13.5,0.2c4.1-0.1,5.6,1.6,5.4,5.7c-0.5,17.3-0.9,34.6-1.2,51.9c-0.1,3.1,0,6.2,0,10.7
			c2.4-1.8,3.9-2.5,4.9-3.6c12.5-13.3,25-26.7,37.6-40c6.7-7.1,13.6-14.1,20.5-21c1.1-1.1,2.8-2.2,4.2-2.2
			c8.9-0.2,17.9-0.1,27.6,1.1c-2.3,2.6-4.5,5.3-6.9,7.8c-14,14.4-28.1,28.8-42.2,43.2c-4,4-8,8-12,11.9c-9.7,9.4-7.4,10.9-1.4,17.9
			c17.2,20.3,33.9,41.1,50.8,61.6c4.2,5.1,8.7,10.1,13,15.2c0.8,0.9,1.3,2.2,2.6,4.5c-11.2-0.7-21.3-1.3-31.3-2.1
			c-1.1-0.1-2.2-1.4-3-2.4c-18.9-24-37.7-48.1-56.6-72.2C394.9,1231.7,392.6,1229.3,389.4,1225.7z"/>
		<path d="M47.5,1220.5c0-25,0.1-49.9-0.1-74.9c0-4.7,1.9-6,6.3-5.9c26.1,0.6,52.3,1,78.4,1.5c4.2,0.1,8.3,0,12.5-0.1
			c3.9-0.1,5.4,1.7,5.2,5.5c-0.3,4-0.3,8-0.4,12c-0.1,3.5-1.7,5-5.3,4.9c-21-0.5-41.9-0.9-62.9-1.4c-0.8,0-1.7-0.1-2.5-0.1
			c-6.5,0-7.2,0.6-7.2,7c-0.1,11.5,0,23-0.4,34.5c-0.1,4,1.4,5.2,5.2,5.3c16.8,0.1,33.6,0.4,50.5,0.7c3.5,0.1,7,0.4,10.5,0.3
			c3.6-0.1,4.7,1.8,4.7,4.9c0,4-0.3,8-0.1,12c0.2,4.3-1.7,5.5-5.7,5.4c-17.5-0.5-35-1.1-52.4-1c-14.8,0.1-12.5-2.8-13,12.5
			c-0.5,17-0.4,34-0.5,50.9c0,6.6-0.2,6.9-6.7,6.8c-4.8-0.1-9.6-0.4-14.5-0.5c-2.8-0.1-3.5-1.5-3.5-4.2c0.1-25.3,0.1-50.6,0.1-75.9
			C46.2,1220.5,46.9,1220.5,47.5,1220.5z"/>
		<path fill="#FFFFFF" d="M121.9,548.8c-1.1,0.3-2.2,1-3.3,1c-1,0-2.2-0.6-2.8-1.3c-0.3-0.3,0.2-2,0.8-2.4c2.6-1.9,3.9-3.9,2.6-7.2
			c-0.2-0.6,0.8-1.8,1.3-2.7c0.7-1.3,1.3-2.6,1.6-4.1c-2.8,1.3-6.7,1.9-5.3-1.7c2.4-6.3-1.9-10.9-2.1-16.4
			c-0.4-13.6-1.2-27.2-1.7-40.9c-0.1-3.5,2.1-4.6,5.2-4.7c33.6-0.8,67.2-1.5,100.8-2.4c17.3-0.4,34.6-1.2,51.9-1.7
			c23.5-0.7,46.9-1.3,70.4-2c29.6-0.8,59.2-1.8,88.8-2.5c15.1-0.4,30.3-0.5,45.4-0.9c19-0.5,37.9-1.2,56.9-1.8
			c10.8-0.4,21.6-0.7,32.4-1.3c4.7-0.2,6.1,1.7,6,6.2c-0.7,27.1-1.3,54.3-1.7,81.4c-0.4,26.1-0.6,52.3-0.9,78.4
			c-0.2,18.8-0.6,37.6-0.9,56.4c-0.3,21.6-0.5,43.3-0.9,64.9c-0.5,29.8-1.2,59.6-1.7,89.4c-0.6,34-1,67.9-1.5,101.9
			c-0.3,17.8-0.9,35.6-1.3,53.4c-0.1,4.1-1.2,5.3-5.7,4.5c-13.4-2.3-27.1-3.2-40.5-5.9c-18.1-3.6-36.1-7.9-54-12.5
			c-26.5-6.8-51.9-17-76.4-29.2c-15.6-7.7-30.6-16.9-45.6-25.7c-21.3-12.5-40.8-27.6-59.5-43.7c-27.2-23.4-52.4-48.8-73.7-77.7
			c-15-20.3-29.6-41-43.7-61.9c-7.7-11.4-14.7-23.5-20.7-35.9c-10.1-20.8-19.1-42.1-28.5-63.2c-0.6-1.4-0.6-3.3-0.6-4.9
			c0-20.3,0.2-40.6,0-61c-0.1-6.9,3.5-11.8,7.2-16.9c1-1.4,1.7-2.9,2.6-4.4C122.7,549.2,122.3,549,121.9,548.8z"/>
		<path fill="#FFFFFF" d="M663.6,665.1c141.2-82.8,281.6-165.1,423.3-248.1c0,6,0.2,11.2,0,16.3c-0.7,17.5-1.5,34.9-2.3,52.4
			c-1.1,23.9-2.4,47.9-3.3,71.8c-1,26.3-1.8,52.6-2.7,78.9c-0.3,7.8,0.1,15.8-1.1,23.4c-1,5.9-3.5,11.8-6.1,17.3
			c-10.1,21.2-19.8,42.6-30.9,63.2c-8.2,15.2-18.3,29.4-27.6,44c-2,3.1-4.4,4.1-8.1,2.7c-27.1-9.9-54.1-19.7-81.2-29.4
			c-19-6.8-38-13.3-57-20c-17.1-6.1-34.1-12.5-51.2-18.6c-23.7-8.4-47.4-16.6-71.2-24.9c-17-5.9-33.9-11.9-50.9-17.9
			c-8.8-3.1-17.6-6-26.4-9.1C666,666.8,665.1,666,663.6,665.1z"/>
		<path fill="#FFFFFF" d="M625.7,855.4c0.5-32.5,1-64.9,1.5-97.4c0.2-11.6,0.7-23.3,0.8-34.9c0-4.4,1.6-5.2,5.5-3.8
			c13.4,4.9,26.9,9.7,40.4,14.5c23.7,8.3,47.4,16.5,71.1,25c24.8,8.8,49.4,17.9,74.2,26.8c23.8,8.5,47.7,16.8,71.5,25.4
			c21.1,7.6,42.2,15.5,63.2,23.3c2,0.7,4.2,1.2,6.2,1.9c6.8,2.2,7.3,4.2,2.2,9c-5.5,5.1-11.1,10-16.6,15.1
			c-21.4,20.1-44.9,37.3-69.7,53.1c-21.7,13.8-44.5,25.5-68,35.7c-25.2,10.9-51.3,19.4-77.9,26.6c-32.3,8.7-65.1,13.8-98.3,17.2
			c-8.4,0.9-8.6,0.4-8.5-8c0.7-32.1,1.2-64.3,1.7-96.4c0.2-11,0-22,0-33C625.2,855.4,625.5,855.4,625.7,855.4z"/>
		<path fill="#FFFFFF" d="M900.3,1205.9c0-6.6,0-13.3,0-19.9c0-2.6,0.6-4.9,3.8-4.7c10.4,0.7,21,0.5,31.2,2.7
			c13,2.8,18.2,11.6,17.5,24.5c-0.6,13-9.1,20.3-20.6,21.7c-9.2,1.2-18.5,0.6-27.8,0.7c-3.8,0.1-5.3-1.9-5.2-5.6
			c0.2-6.5,0-13,0-19.5C899.6,1205.9,899.9,1205.9,900.3,1205.9z"/>
		<path fill="#FFFFFF" d="M1051.8,1260.8c9.1-23.3,17.9-46.1,27.4-70.5c1.8,3.3,3.1,5.2,3.9,7.4c7.2,20.3,14.3,40.7,21.5,61.1
			c1,2.8,1.2,5.2-2.7,5.1c-15.9-0.7-31.8-1.4-47.8-2.2C1053.5,1261.6,1052.9,1261.2,1051.8,1260.8z"/>
	</g>
</g>
<path fill="#FFFFFF" d="M156.8,383.1"/>
<path fill="#FFFFFF" d="M113,468.2c7.4,0,19.8,59.1,20.7,70.3c1.1,13.1-6.9,92.9-20.2,97.3L113,468.2z"/>
<polygon fill="#FFFFFF" points="113,468.2 115.2,468.2 120.9,468.2 "/>
<polygon fill="#FFFFFF" points="115.7,470.5 113,468.2 120.9,468.2 "/>
<path fill="#FFFFFF" d="M122.6,473.7"/>
<path fill="#FFFFFF" d="M47.5,1220.5c-16.4-3.3,1.5,90.7-1.4,76.5c0,0,0.1,0.8,0.4,2.9"/>
</svg>
